# xmcd
#
# Track frame offsets: 
#        150
#        16069
#        31109
#        49871
#        76183
#        92874
#        110447
#        136350
#        157050
#        173067
#        189328
#        206510
#        219721
#        238266
#        253599
#        271306
#        283139
#        297627
#        313497
#        332463
#
# Disc length: 4675 seconds
#
# Revision: 0
# Processed by: cddbd v1.5.2PL0 Copyright (c) Steve Scherf et al.
# Submitted via: ExactAudioCopy v0.95b4
#
DISCID=2a124114
DTITLE=The Escorts - The Greatest Hits
DYEAR=2005
DGENRE=R&B
TTITLE0=I'll Be Sweeter Tomorrow
TTITLE1=By The Time I Get To Phoenix
TTITLE2=Little Green Apples
TTITLE3=All We Need Is Another Chance
TTITLE4=Look Over Your Shoulder
TTITLE5=I'm So Glad I Found You
TTITLE6=Ooh Baby Baby
TTITLE7=Disrespect Can Wreck
TTITLE8=Let's Make Love At Home Sometimes
TTITLE9=Corruption
TTITLE10=We've Come Too Far To End It Now
TTITLE11=Brother
TTITLE12=I Only Have Eyes For You
TTITLE13=The Shoo-nough
TTITLE14=La La Means I Love You
TTITLE15=Within Without
TTITLE16=I Can't Stand To See You Cry
TTITLE17=Hypnotized
TTITLE18=There's A Love For Everyone
TTITLE19=Interview Snippets
EXTD=
EXTT0=
EXTT1=
EXTT2=
EXTT3=
EXTT4=
EXTT5=
EXTT6=
EXTT7=
EXTT8=
EXTT9=
EXTT10=
EXTT11=
EXTT12=
EXTT13=
EXTT14=
EXTT15=
EXTT16=
EXTT17=
EXTT18=
EXTT19=
PLAYORDER=
